<svg width="73" height="32" viewBox="0 0 73 32" fill="none" xmlns="http://www.w3.org/2000/svg">
<path d="M65.8461 3.07691L61.5384 0H5.78776C4.43379 0 3.12268 0.474688 2.08253 1.34147C0.762962 2.44111 0 4.07007 0 5.78776V24.9939C0 27.1156 0.842858 29.1504 2.34315 30.6507L3.6923 31.9999H69.5384L72.6153 28.3076L71.9999 19.0769L65.8461 3.07691Z" fill="#079AFF"/>
<path d="M65.8461 3.07691L61.5384 0H5.78776C4.43379 0 3.12268 0.474688 2.08253 1.34147C0.762962 2.44111 0 4.07007 0 5.78776V24.9939C0 27.1156 0.842858 29.1504 2.34315 30.6507L3.6923 31.9999H69.5384L72.6153 28.3076L71.9999 19.0769L65.8461 3.07691Z" fill="url(#paint0_linear_652_1322)" fill-opacity="0.5"/>
<path d="M65.8461 3.07691L61.5384 0H5.78776C4.43379 0 3.12268 0.474688 2.08253 1.34147C0.762962 2.44111 0 4.07007 0 5.78776V24.9939C0 27.1156 0.842858 29.1504 2.34315 30.6507L3.6923 31.9999H69.5384L72.6153 28.3076L71.9999 19.0769L65.8461 3.07691Z" fill="url(#paint1_linear_652_1322)" fill-opacity="0.5"/>
<path d="M65.8461 3.07691L61.5384 0H5.78776C4.43379 0 3.12268 0.474688 2.08253 1.34147C0.762962 2.44111 0 4.07007 0 5.78776V24.9939C0 27.1156 0.842858 29.1504 2.34315 30.6507L3.6923 31.9999H69.5384L72.6153 28.3076L71.9999 19.0769L65.8461 3.07691Z" fill="url(#paint2_linear_652_1322)"/>
<path d="M46.4073 2.37884L43.0769 0H5.78776C4.43379 0 3.12268 0.474688 2.08253 1.34147C0.762962 2.44111 0 4.07007 0 5.78776V28.3076C2.36414 30.6717 5.57061 31.9999 8.91401 31.9999H51.0769L54.1538 28.3076L53.8608 23.9124C53.6471 20.707 52.9519 17.552 51.7987 14.5536L47.8157 4.19786C47.5345 3.46668 47.0448 2.83418 46.4073 2.37884Z" fill="url(#paint3_linear_652_1322)"/>
<path d="M0 28.3076H72.6153L69.5384 31.9999H3.6923L0 28.3076Z" fill="url(#paint4_linear_652_1322)"/>
<path d="M0 28.3076H54.1336L50.5548 31.9999H3.17018L0 28.3076Z" fill="url(#paint5_linear_652_1322)"/>
<path d="M51.8027 6.1543H67.0773L72.0003 19.0773H56.3448C56.1373 19.0773 55.9514 18.9492 55.8776 18.7553L51.3354 6.8323C51.2108 6.50503 51.4525 6.1543 51.8027 6.1543Z" fill="#173676"/>
<path d="M71.3857 22.1172V21.2233C71.3857 21.0577 71.2514 20.9233 71.0857 20.9233H69.0242C68.9593 20.9233 68.8961 20.9444 68.8442 20.9833L66.5827 22.6795C66.5071 22.7361 66.4627 22.8251 66.4627 22.9195V24.3156C66.4627 24.4813 66.597 24.6156 66.7627 24.6156H70.5361C70.6738 24.6156 70.7938 24.5219 70.8272 24.3884L71.3768 22.1899C71.3827 22.1661 71.3857 22.1417 71.3857 22.1172Z" fill="url(#paint6_radial_652_1322)"/>
<path d="M57.2305 22.1172V21.2233C57.2305 21.0577 57.3648 20.9233 57.5305 20.9233H59.592C59.6569 20.9233 59.7201 20.9444 59.772 20.9833L62.0335 22.6795C62.1091 22.7361 62.1535 22.8251 62.1535 22.9195V24.3156C62.1535 24.4813 62.0192 24.6156 61.8535 24.6156H58.0801C57.9424 24.6156 57.8224 24.5219 57.789 24.3884L57.2394 22.1899C57.2335 22.1661 57.2305 22.1417 57.2305 22.1172Z" fill="#FBECCB"/>
<path d="M57.2305 22.1172V21.2233C57.2305 21.0577 57.3648 20.9233 57.5305 20.9233H59.592C59.6569 20.9233 59.7201 20.9444 59.772 20.9833L62.0335 22.6795C62.1091 22.7361 62.1535 22.8251 62.1535 22.9195V24.3156C62.1535 24.4813 62.0192 24.6156 61.8535 24.6156H58.0801C57.9424 24.6156 57.8224 24.5219 57.789 24.3884L57.2394 22.1899C57.2335 22.1661 57.2305 22.1417 57.2305 22.1172Z" fill="url(#paint7_radial_652_1322)"/>
<path d="M27.0771 8.38477C27.0771 7.83248 27.5249 7.38477 28.0771 7.38477H42.0771C42.6294 7.38477 43.0771 7.83248 43.0771 8.38477V28.3078H27.0771V8.38477Z" fill="#68C0F2"/>
<path d="M4.92383 8.38477C4.92383 7.83248 5.37154 7.38477 5.92383 7.38477H19.9238C20.4761 7.38477 20.9238 7.83248 20.9238 8.38477V28.3078H4.92383V8.38477Z" fill="#68C0F2"/>
<rect x="6.1543" y="9.84619" width="4.92307" height="8.61535" rx="0.5" fill="#173676"/>
<rect x="28.3086" y="9.84619" width="4.92307" height="8.61535" rx="0.5" fill="#173676"/>
<rect x="12.3076" y="7.38477" width="1.23077" height="20.923" fill="#0F77B2"/>
<rect x="34.4629" y="7.38477" width="1.23077" height="20.923" fill="#0F77B2"/>
<rect x="14.7715" y="9.84619" width="4.92307" height="8.61535" rx="0.5" fill="#173676"/>
<rect x="36.9229" y="9.84619" width="4.92307" height="8.61535" rx="0.5" fill="#173676"/>
<defs>
<linearGradient id="paint0_linear_652_1322" x1="54.1538" y1="9.84612" x2="65.8461" y2="9.23073" gradientUnits="userSpaceOnUse">
<stop stop-color="#006AB2"/>
<stop offset="1" stop-color="#64C0FF"/>
</linearGradient>
<linearGradient id="paint1_linear_652_1322" x1="54.7692" y1="22.7691" x2="68.3076" y2="17.8461" gradientUnits="userSpaceOnUse">
<stop stop-color="#006AB2"/>
<stop offset="1" stop-color="#64C0FF"/>
</linearGradient>
<linearGradient id="paint2_linear_652_1322" x1="63.7695" y1="28" x2="63.7696" y2="22" gradientUnits="userSpaceOnUse">
<stop stop-color="#0168AC"/>
<stop offset="1" stop-color="#0292F3"/>
</linearGradient>
<linearGradient id="paint3_linear_652_1322" x1="27.0769" y1="4.30768" x2="27.0769" y2="28.3076" gradientUnits="userSpaceOnUse">
<stop stop-color="#0292F3"/>
<stop offset="1" stop-color="#01558D"/>
</linearGradient>
<linearGradient id="paint4_linear_652_1322" x1="52.2695" y1="28.5" x2="52.2695" y2="32.5" gradientUnits="userSpaceOnUse">
<stop stop-color="#0168AC"/>
<stop offset="1" stop-color="#0292F3"/>
</linearGradient>
<linearGradient id="paint5_linear_652_1322" x1="27.7855" y1="28.923" x2="27.7855" y2="32.6153" gradientUnits="userSpaceOnUse">
<stop stop-color="#01558D"/>
<stop offset="1" stop-color="#0292F3"/>
</linearGradient>
<radialGradient id="paint6_radial_652_1322" cx="0" cy="0" r="1" gradientTransform="matrix(-1.2103 1.85963 1.30447 0.848975 68.9242 22.7695)" gradientUnits="userSpaceOnUse">
<stop stop-color="white"/>
<stop offset="1" stop-color="#FBECCB"/>
</radialGradient>
<radialGradient id="paint7_radial_652_1322" cx="0" cy="0" r="1" gradientTransform="matrix(1.2103 1.85963 -1.30447 0.848975 59.692 22.7695)" gradientUnits="userSpaceOnUse">
<stop stop-color="white"/>
<stop offset="1" stop-color="#FBECCB"/>
</radialGradient>
</defs>
</svg>
