<svg xmlns="http://www.w3.org/2000/svg" viewBox="0 0 24 24" width="24" height="24">
  <path fill="#000000" d="M17.05 12.536c-.018-2.79 2.281-4.13 2.385-4.193-1.297-1.895-3.318-2.155-4.035-2.184-1.72-.174-3.355.998-4.227.998-.872 0-2.219-.974-3.648-.948-1.876.027-3.605 1.083-4.57 2.752-1.947 3.367-.498 8.36 1.404 11.094.93 1.341 2.04 2.846 3.502 2.793 1.41-.057 1.94-.91 3.645-.91 1.705 0 2.183.91 3.673.882 1.518-.025 2.479-1.367 3.404-2.713 1.072-1.555 1.514-3.06 1.541-3.137-.034-.014-2.957-1.134-2.987-4.504M14.36 4.32c.78-.945 1.305-2.258 1.162-3.564-1.123.046-2.482.747-3.286 1.69-.722.835-1.354 2.171-1.184 3.452 1.253.097 2.528-.636 3.308-1.578"/>
</svg>
