<svg width="24" height="24" viewBox="0 0 24 24" fill="none" xmlns="http://www.w3.org/2000/svg">
<circle cx="12" cy="12.5" r="8.5" stroke="#61656B"/>
<path d="M10.9678 14.5605C10.9723 13.9863 11.0293 13.5215 11.1387 13.166C11.2526 12.806 11.4098 12.5189 11.6104 12.3047C11.8109 12.0859 12.0798 11.8717 12.417 11.6621C13.0915 11.252 13.4287 10.7279 13.4287 10.0898C13.4287 9.81185 13.3626 9.56803 13.2305 9.3584C13.1029 9.14421 12.9251 8.98014 12.6973 8.86621C12.474 8.75228 12.2256 8.69531 11.9521 8.69531C11.6969 8.69531 11.4577 8.75 11.2344 8.85938C11.0111 8.96419 10.8265 9.12598 10.6807 9.34473C10.5348 9.56348 10.4528 9.83464 10.4346 10.1582H8.95801C8.97624 9.5931 9.11751 9.10775 9.38184 8.70215C9.65072 8.29655 10.0085 7.98893 10.4551 7.7793C10.9017 7.56966 11.4007 7.46484 11.9521 7.46484C12.5355 7.46484 13.0505 7.5765 13.4971 7.7998C13.9482 8.01855 14.2969 8.32617 14.543 8.72266C14.7936 9.11914 14.9189 9.57487 14.9189 10.0898C14.9189 10.6185 14.8005 11.0765 14.5635 11.4639C14.3265 11.8467 13.9801 12.1771 13.5244 12.4551C13.2419 12.6283 13.0186 12.806 12.8545 12.9883C12.6904 13.166 12.5674 13.3802 12.4854 13.6309C12.4079 13.8815 12.3669 14.1914 12.3623 14.5605V14.6426H10.9678V14.5605ZM10.749 16.6387C10.749 16.4609 10.7923 16.2969 10.8789 16.1465C10.9655 15.9961 11.0817 15.8776 11.2275 15.791C11.3779 15.6999 11.542 15.6543 11.7197 15.6543C11.8929 15.6543 12.0524 15.6976 12.1982 15.7842C12.3486 15.8708 12.4671 15.9893 12.5537 16.1396C12.6449 16.29 12.6904 16.4518 12.6904 16.625C12.6904 16.7982 12.6449 16.96 12.5537 17.1104C12.4671 17.2562 12.3486 17.3747 12.1982 17.4658C12.0524 17.5524 11.8929 17.5957 11.7197 17.5957C11.5465 17.5957 11.3848 17.5524 11.2344 17.4658C11.0885 17.3792 10.9701 17.263 10.8789 17.1172C10.7923 16.9714 10.749 16.8118 10.749 16.6387Z" fill="#61656B"/>
</svg>
