<svg width="24" height="24" viewBox="0 0 24 24" fill="none" xmlns="http://www.w3.org/2000/svg">
<path d="M10.5 17C9.95 17 9.47917 16.8042 9.0875 16.4125C8.69583 16.0208 8.5 15.55 8.5 15V9C8.5 8.45 8.69583 7.97917 9.0875 7.5875C9.47917 7.19583 9.95 7 10.5 7H13.5C14.05 7 14.5208 7.19583 14.9125 7.5875C15.3042 7.97917 15.5 8.45 15.5 9V15C15.5 15.55 15.3042 16.0208 14.9125 16.4125C14.5208 16.8042 14.05 17 13.5 17H10.5ZM1 17V15H5V13H3C2.45 13 1.97917 12.8042 1.5875 12.4125C1.19583 12.0208 1 11.55 1 11V9C1 8.45 1.19583 7.97917 1.5875 7.5875C1.97917 7.19583 2.45 7 3 7H7V9H3V11H5C5.55 11 6.02083 11.1958 6.4125 11.5875C6.80417 11.9792 7 12.45 7 13V15C7 15.55 6.80417 16.0208 6.4125 16.4125C6.02083 16.8042 5.55 17 5 17H1ZM17 17V15H21V13H19C18.45 13 17.9792 12.8042 17.5875 12.4125C17.1958 12.0208 17 11.55 17 11V9C17 8.45 17.1958 7.97917 17.5875 7.5875C17.9792 7.19583 18.45 7 19 7H23V9H19V11H21C21.55 11 22.0208 11.1958 22.4125 11.5875C22.8042 11.9792 23 12.45 23 13V15C23 15.55 22.8042 16.0208 22.4125 16.4125C22.0208 16.8042 21.55 17 21 17H17ZM10.5 15H13.5V9H10.5V15Z" fill="#797E86"/>
</svg>
